<?xml version="1.0" standalone="no"?>
<!DOCTYPE svg PUBLIC "-//W3C//DTD SVG 20010904//EN"
 "http://www.w3.org/TR/2001/REC-SVG-20010904/DTD/svg10.dtd">
<svg version="1.0" xmlns="http://www.w3.org/2000/svg"
 width="398.000000pt" height="398.000000pt" viewBox="0 0 398.000000 398.000000"
 preserveAspectRatio="xMidYMid meet">
<metadata>
Created by potrace 1.14, written by Peter Selinger 2001-2017
</metadata>
<g transform="translate(0.000000,398.000000) scale(0.100000,-0.100000)"
fill="#000000" stroke="none">
<path d="M1740 3719 c-47 -4 -95 -9 -106 -12 -12 -3 -39 -8 -60 -12 -22 -4
-43 -8 -49 -9 -20 -4 -150 -49 -160 -55 -5 -3 -15 -6 -21 -7 -6 -1 -42 -17
-80 -35 -38 -18 -71 -33 -74 -34 -18 -4 -116 -59 -118 -66 -2 -5 -8 -9 -13 -9
-8 0 -115 -68 -154 -98 -5 -4 -22 -15 -37 -24 -26 -17 -45 -33 -121 -103 -21
-19 -40 -35 -42 -35 -11 0 -179 -178 -240 -255 -22 -28 -43 -51 -47 -53 -5 -2
-8 -8 -8 -14 0 -6 -11 -21 -26 -34 -14 -13 -22 -24 -18 -24 3 0 -5 -15 -20
-34 -14 -19 -26 -39 -26 -45 0 -6 -5 -11 -12 -11 -6 0 -9 -3 -5 -6 3 -3 2 -11
-4 -18 -24 -29 -58 -87 -70 -120 -7 -20 -17 -36 -21 -36 -4 0 -8 -4 -8 -9 0
-5 -5 -22 -12 -38 -6 -15 -12 -32 -14 -38 -2 -5 -15 -41 -29 -80 -15 -38 -28
-77 -30 -85 -2 -8 -8 -34 -13 -57 -14 -61 -15 -262 -2 -319 7 -27 19 -65 28
-84 9 -19 17 -39 18 -45 2 -15 76 -138 91 -153 7 -7 13 -17 13 -22 0 -16 279
-290 295 -290 3 0 18 -12 33 -26 15 -14 39 -32 55 -40 15 -8 27 -19 27 -25 0
-6 4 -8 8 -5 5 3 19 -5 33 -17 13 -13 39 -29 57 -36 17 -7 32 -17 32 -22 0 -5
6 -9 13 -9 8 0 22 -9 32 -20 10 -11 26 -20 36 -20 9 0 19 -3 21 -7 5 -12 166
-93 183 -93 8 0 15 -5 15 -10 0 -6 3 -9 8 -8 4 2 27 -6 52 -16 25 -11 47 -20
50 -21 3 -1 12 -4 20 -7 92 -34 235 -75 290 -82 80 -11 116 -19 128 -29 8 -6
12 -6 12 2 0 7 5 9 13 4 14 -9 377 -12 377 -3 0 3 10 6 23 7 23 0 83 9 157 23
52 10 276 77 300 90 17 9 135 37 160 38 8 0 24 3 35 5 11 3 70 17 132 31 61
14 127 32 147 40 20 8 36 13 36 11 0 -3 11 0 24 5 29 10 38 4 92 -65 21 -27
44 -53 49 -57 6 -4 6 -8 1 -8 -5 0 -1 -9 9 -20 10 -11 14 -20 9 -20 -5 0 -4
-4 2 -8 31 -21 55 -200 35 -255 -5 -13 -5 -30 -1 -37 7 -11 13 -6 27 18 10 18
21 32 26 32 4 0 7 7 7 15 0 9 8 30 17 48 9 18 17 34 18 37 0 7 33 88 45 110 4
9 10 29 14 45 3 17 9 41 12 55 3 14 8 77 11 140 5 114 17 150 48 150 17 0 123
80 166 125 69 72 99 114 126 170 15 33 30 62 33 65 3 3 7 21 8 40 2 19 7 37
10 40 10 7 7 186 -3 240 -5 25 -9 47 -10 50 0 3 -3 10 -6 15 -4 6 -9 22 -12
36 -4 14 -14 43 -24 65 -9 21 -17 42 -17 46 -1 4 -7 13 -13 19 -7 7 -13 19
-13 26 0 7 -4 13 -10 13 -5 0 -10 5 -10 11 0 13 -77 122 -114 160 -13 15 -22
30 -19 33 4 3 1 6 -5 6 -7 0 -12 6 -12 13 0 17 -79 180 -114 235 -14 23 -27
47 -28 53 -3 11 -11 23 -53 72 -8 9 -12 17 -7 17 4 0 2 4 -3 8 -6 4 -22 23
-35 42 -13 19 -29 38 -35 42 -6 5 -6 8 0 8 6 0 -3 9 -20 20 -16 11 -27 20 -23
20 8 0 -9 22 -74 94 -21 22 -38 44 -38 48 0 5 -7 8 -15 8 -8 0 -15 8 -15 17 0
9 -2 14 -5 11 -3 -2 -32 21 -65 53 -33 31 -60 55 -60 52 0 -3 -10 5 -22 18
-30 32 -140 114 -197 147 -26 15 -55 34 -65 44 -11 10 -25 18 -32 18 -6 0 -17
7 -24 15 -7 9 -15 13 -18 10 -3 -3 -11 0 -17 5 -40 33 -285 136 -370 156 -16
4 -34 9 -39 12 -5 3 -23 7 -40 9 -32 4 -37 4 -96 16 -51 10 -202 13 -300 6z"/>
</g>
</svg>
